<?xml version="1.0" encoding="iso-8859-1"?>
<!-- Generator: Adobe Illustrator 19.0.0, SVG Export Plug-In . SVG Version: 6.00 Build 0)  -->
<svg version="1.1" id="Layer_1" xmlns="http://www.w3.org/2000/svg" xmlns:xlink="http://www.w3.org/1999/xlink" x="0px" y="0px"
	 viewBox="0 0 200.792 200.792" style="enable-background:new 0 0 200.792 200.792;" xml:space="preserve">
<g>
	<g>
		<g>
			<path d="M91.316,87.595L46.515,61.731c-0.852-0.489-1.866-0.624-2.804-0.368c-0.946,0.253-1.754,0.873-2.244,1.721L23.912,93.491
				c-7.435,12.875-4.014,29.057,7.361,37.987l-14.911,25.83l-12.667-7.313L0,156.397l32.002,18.475l3.695-6.401l-12.934-7.467
				l14.849-25.722c3.764,1.665,7.776,2.548,11.847,2.548c2.565,0,5.149-0.337,7.697-1.018c7.635-2.042,14.011-6.93,17.955-13.762
				l17.558-30.407c0.491-0.848,0.621-1.856,0.368-2.804S92.164,88.086,91.316,87.595z M68.71,119.356
				c-2.955,5.122-7.736,8.786-13.463,10.318c-5.726,1.528-11.694,0.747-16.815-2.212c-10.587-6.112-14.228-19.694-8.119-30.275
				L46.02,69.98l38.4,22.169L68.71,119.356z"/>
			<path d="M200.792,153.649l-3.973-6.231l-13.082,8.339l-15.053-26.074c9.681-9.19,12.235-24.14,5.276-36.191l-17.555-30.407
				c-0.491-0.848-1.299-1.469-2.244-1.721c-0.946-0.256-1.956-0.121-2.804,0.368l-44.801,25.864
				c-0.848,0.491-1.468,1.297-1.721,2.244c-0.253,0.947-0.123,1.956,0.368,2.804l17.558,30.407
				c3.944,6.832,10.32,11.72,17.955,13.762c2.548,0.68,5.131,1.018,7.697,1.018c4.961,0,9.844-1.285,14.277-3.747l14.808,25.65
				l-14.493,9.239l3.973,6.231l19.14-12.201l1.351-0.78l-0.033-0.06L200.792,153.649z M159.44,127.462
				c-5.12,2.959-11.091,3.74-16.814,2.212c-5.726-1.532-10.508-5.196-13.463-10.318l-15.711-27.207l38.4-22.169l15.707,27.207
				C173.668,107.769,170.027,121.35,159.44,127.462z"/>
			
				<rect x="73.994" y="127.652" transform="matrix(-0.8002 -0.5998 0.5998 -0.8002 55.5337 299.6745)" width="7.391" height="25.867"/>
			<rect x="94.318" y="136.89" width="7.39" height="25.864"/>
			<rect x="105.402" y="136.892" transform="matrix(-0.6 -0.8 0.8 -0.6 76.8652 319.6068)" width="25.865" height="7.391"/>
			<rect x="114.86" y="34.825" transform="matrix(0.8002 0.5998 -0.5998 0.8002 52.3351 -61.5628)" width="7.391" height="25.867"/>
			<rect x="94.538" y="25.588" width="7.39" height="25.864"/>
			<rect x="64.978" y="44.063" transform="matrix(0.6 0.8 -0.8 0.6 69.3715 -43.2253)" width="25.865" height="7.391"/>
		</g>
	</g>
</g>
<g>
</g>
<g>
</g>
<g>
</g>
<g>
</g>
<g>
</g>
<g>
</g>
<g>
</g>
<g>
</g>
<g>
</g>
<g>
</g>
<g>
</g>
<g>
</g>
<g>
</g>
<g>
</g>
<g>
</g>
</svg>
